<?xml version="1.0" encoding="UTF-8"?>
<svg width="35px" height="35px" viewBox="0 0 35 35" version="1.1" xmlns="http://www.w3.org/2000/svg" xmlns:xlink="http://www.w3.org/1999/xlink">
    <!-- Generator: Sketch 54.1 (76490) - https://sketchapp.com -->
    <title>Slice</title>
    <desc>Created with Sketch.</desc>
    <g id="Page-1" stroke="none" stroke-width="1" fill="none" fill-rule="evenodd">
        <g id="Group-3">
            <rect id="Rectangle" x="0" y="0" width="35" height="35"></rect>
            <g id="logo-de-facebook" transform="translate(9.000000, 4.000000)" fill="#FFFFFF" fill-rule="nonzero">
                <path d="M13.4728011,0.00540973544 L10.1148377,0 C6.34228098,0 3.9042891,2.51146968 3.9042891,6.39863508 L3.9042891,9.34883431 L0.528007081,9.34883431 C0.23625623,9.34883431 0,9.58632169 0,9.87925887 L0,14.1537613 C0,14.4466985 0.236525621,14.6839154 0.528007081,14.6839154 L3.9042891,14.6839154 L3.9042891,25.4698459 C3.9042891,25.7627831 4.14054533,26 4.43229618,26 L8.83738382,26 C9.12913468,26 9.36539091,25.7625126 9.36539091,25.4698459 L9.36539091,14.6839154 L13.313052,14.6839154 C13.6048029,14.6839154 13.8410591,14.4466985 13.8410591,14.1537613 L13.8426754,9.87925887 C13.8426754,9.73860574 13.7869114,9.60390333 13.6880448,9.5043642 C13.5891782,9.40482507 13.4544825,9.34883431 13.314399,9.34883431 L9.36539091,9.34883431 L9.36539091,6.84791361 C9.36539091,5.6458704 9.65067636,5.03565224 11.210183,5.03565224 L13.4722623,5.03484078 C13.7637438,5.03484078 14,4.79735339 14,4.5046867 L14,0.535563809 C14,0.243167608 13.7640132,0.00595070899 13.4728011,0.00540973544 Z" id="Path"></path>
            </g>
        </g>
    </g>
</svg>